<svg xmlns="http://www.w3.org/2000/svg" viewBox="0 0 496.016 496.016"><path d="M64.816 246.474c0 26.4-36.8 18.4-46.4 18.4-10.4.8-18.4-20.8-18.4-46.4s-.8-50.4 8.8-50.4c10.4 0 56 52.8 56 78.4z" fill="#dae5e5"/><path d="M64.816 246.474c0 26.4-36.8 18.4-46.4 18.4-10.4.8-18.4-20.8-18.4-46.4s-.8-34.4 8.8-34.4c10.4-.8 56 36.8 56 62.4z" fill="#c9d3d3"/><path d="M64.816 246.474c0 26.4-36.8 18.4-46.4 18.4-10.4.8-18.4-20.8-18.4-46.4s23.2-7.2 32.8-7.2c10.4-.8 32 9.6 32 35.2z" fill="#bdc6c6"/><path d="M496.016 261.674c0-14.4-11.2-27.2-27.2-32.8-10.4-19.2-31.2-32.8-55.2-32.8-34.4 0-413.6 28-413.6 62.4s287.2 75.2 321.6 68.8c96.8-17.6 136-26.4 151.2-34.4 13.6-5.6 23.2-17.6 23.2-31.2z" fill="#dae5e5"/><path d="M496.016 261.674c0-14.4-11.2-27.2-27.2-32.8-10.4-19.2-100.8-8-124.8-8-34.4 0-344 3.2-344 37.6s287.2 75.2 321.6 68.8c96.8-17.6 136-26.4 151.2-34.4 13.6-5.6 23.2-17.6 23.2-31.2z" fill="#c9d3d3"/><path d="M.016 258.474c0 34.4 287.2 75.2 321.6 68.8 96.8-17.6 136-26.4 151.2-34.4 14.4-6.4 23.2-18.4 23.2-31.2" fill="#bdc6c6"/><path d="M321.616 327.274c96.8-17.6 136-26.4 151.2-34.4 14.4-6.4 23.2-18.4 23.2-31.2" fill="#b1baba"/><path d="M136.816 256.074h146.4s23.2 5.6 9.6 16-30.4 18.4-30.4 18.4l-129.6-20.8 4-13.6z" fill="#bdc6c6"/><path d="M136.816 256.074l80 11.2s89.6-6.4 76 4-30.4 18.4-30.4 18.4l-129.6-20.8 4-12.8z" fill="#9baaa9"/><g fill="#44a3b2"><circle cx="68.016" cy="248.074" r="4"/><circle cx="85.616" cy="248.074" r="4"/><circle cx="103.216" cy="248.074" r="4"/><circle cx="120.816" cy="248.074" r="4"/><circle cx="138.416" cy="248.074" r="4"/><circle cx="156.016" cy="248.074" r="4"/><circle cx="173.616" cy="248.074" r="4"/><circle cx="191.216" cy="248.074" r="4"/><circle cx="208.816" cy="248.074" r="4"/><circle cx="226.416" cy="248.074" r="4"/><circle cx="264.016" cy="248.074" r="4"/><circle cx="281.616" cy="248.074" r="4"/><circle cx="298.416" cy="248.074" r="4"/><circle cx="316.016" cy="248.074" r="4"/><circle cx="333.616" cy="248.074" r="4"/><circle cx="351.216" cy="248.074" r="4"/><circle cx="368.816" cy="248.074" r="4"/><circle cx="386.416" cy="248.074" r="4"/><circle cx="404.016" cy="248.074" r="4"/><circle cx="421.616" cy="248.074" r="4"/></g><path d="M227.216 262.474c0 3.2-2.4 6.4-6.4 6.4h-88c-3.2 0-6.4-2.4-6.4-6.4 0-3.2 2.4-6.4 6.4-6.4h88c3.2 0 6.4 3.2 6.4 6.4z" fill="#c9d3d3"/><path d="M126.416 262.474c0-3.2 2.4-6.4 6.4-6.4h88c3.2 0 6.4 2.4 6.4 6.4" fill="#dae0e0"/><path d="M468.816 228.874c-1.6-3.2-4-6.4-6.4-9.6h-16c-2.4 0-4.8 2.4-4.8 4.8s2.4 4.8 4.8 4.8h23.2c0 .8 0 0-.8 0z" fill="#44a3b2"/><path d="M279.216 280.074c0 11.2-4.8 20-16 20s-69.6-8.8-69.6-20 58.4-12 69.6-12c11.2 0 16 .8 16 12z" fill="#b4c1c1"/><path d="M279.216 280.074c0 11.2-4.8 20-16 20s-69.6-8.8-69.6-20" fill="#c9d3d3"/><ellipse cx="274.416" cy="280.074" rx="2.4" ry="8" fill="#9baaa9"/><path d="M274.416 288.074c.8 0 2.4-3.2 2.4-8v-.8h-4.8v.8c0 4.8 1.6 8 2.4 8z" fill="#809391"/><path d="M238.416 279.274c0 11.2-4.8 20-16 20s-69.6-8.8-69.6-20 58.4-12 69.6-12 16 .8 16 12z" fill="#c9d3d3"/><path d="M238.416 279.274c0 11.2-4.8 20-16 20s-69.6-8.8-69.6-20" fill="#dae0e0"/><ellipse cx="233.616" cy="279.274" rx="2.4" ry="8" fill="#9baaa9"/><path d="M233.616 287.274c.8 0 2.4-3.2 2.4-8v-.8h-4v.8c-.8 4.8 0 8 1.6 8z" fill="#809391"/></svg>