<?xml version="1.0" encoding="iso-8859-1"?>
<!-- Generator: Adobe Illustrator 19.0.0, SVG Export Plug-In . SVG Version: 6.00 Build 0)  -->
<svg version="1.1" id="Layer_1" xmlns="http://www.w3.org/2000/svg" xmlns:xlink="http://www.w3.org/1999/xlink" x="0px" y="0px"
	 viewBox="0 0 512 512" style="enable-background:new 0 0 512 512;" xml:space="preserve">
<rect x="333.554" y="151.772" transform="matrix(-0.7295 -0.6839 0.6839 -0.7295 408.0586 739.515)" style="fill:#FAC15C;" width="33.388" height="274.606"/>
<polygon style="fill:#FDE0AE;" points="239.304,178.087 239.304,347.423 80.012,177.51 55.652,200.348 239.304,396.243 
	272.696,396.243 272.696,178.087 "/>
<polygon style="fill:#77AAD4;" points="256,378.435 222.609,378.435 200.348,445.217 278.261,467.478 "/>
<polygon style="fill:#4A8EC6;" points="311.652,445.217 289.391,378.435 256,378.435 256,467.478 "/>
<path style="fill:#1D71B8;" d="M200.348,445.217l-11.13,33.391C189.217,500.87,222.609,512,256,512l22.261-33.391L256,445.217
	H200.348z"/>
<path style="fill:#134A79;" d="M256,445.217V512c33.391,0,66.783-11.13,66.783-33.391l-11.13-33.391H256z"/>
<path style="fill:#F9B233;" d="M55.652,200.348h133.565L256,0C145.351,0,55.652,89.698,55.652,200.348z"/>
<path style="fill:#FD5575;" d="M256,0l66.783,200.348h133.565C456.348,89.698,366.649,0,256,0z"/>
<path style="fill:#FB8454;" d="M256,0c-36.883,0-66.783,89.698-66.783,200.348h133.565C322.783,89.699,292.883,0,256,0z"/>
<g>
</g>
<g>
</g>
<g>
</g>
<g>
</g>
<g>
</g>
<g>
</g>
<g>
</g>
<g>
</g>
<g>
</g>
<g>
</g>
<g>
</g>
<g>
</g>
<g>
</g>
<g>
</g>
<g>
</g>
</svg>
